# xmcd
#
# Track frame offsets:
#  150
#  14548
#  32144
#  38242
#  45065
#  58007
#  80824
#  90664
#  106469
#  119007
#  137529
#  148806
#  192489
#
# Disc length: 2639 seconds
#
# Revision: 0
# Processed by: cddbd v1.5.1PL2 Copyright (c) Steve Scherf et al.
# Submitted via: Collectorz.com_Music_Collector 6.11
#
DISCID=b70a4d0d
DTITLE=John Hood - The Words In Red - A Suite In Blues
DYEAR=2006
DGENRE=Blues
TTITLE0=Preaching The Blues
TTITLE1=Flight To Egypt
TTITLE2=The Early Years
TTITLE3=Locusts And Wild Honey
TTITLE4=Centurion Blues
TTITLE5=Mary And Martha
TTITLE6=Do Not Be Afraid
TTITLE7=Watch Over Them (For Matt And Miles)
TTITLE8=Palm Sunday
TTITLE9=The Upper Room
TTITLE10=Walk With Me
TTITLE11=A Prophecy Fulfilled
TTITLE12=The Upper Room (Slight Return)
EXTD=
EXTT0=
EXTT1=
EXTT2=
EXTT3=
EXTT4=
EXTT5=
EXTT6=
EXTT7=
EXTT8=
EXTT9=
EXTT10=
EXTT11=
EXTT12=
PLAYORDER=
